<?xml version="1.0" encoding="UTF-8" standalone="no"?>
<!-- Created with Inkscape (http://www.inkscape.org/) -->

<svg
   xmlns:dc="http://purl.org/dc/elements/1.1/"
   xmlns:cc="http://creativecommons.org/ns#"
   xmlns:rdf="http://www.w3.org/1999/02/22-rdf-syntax-ns#"
   xmlns:svg="http://www.w3.org/2000/svg"
   xmlns="http://www.w3.org/2000/svg"
   xmlns:sodipodi="http://sodipodi.sourceforge.net/DTD/sodipodi-0.dtd"
   xmlns:inkscape="http://www.inkscape.org/namespaces/inkscape"
   width="118.5806mm"
   height="118.58062mm"
   viewBox="0 0 118.5806 118.58062"
   version="1.1"
   id="svg8"
   inkscape:version="0.92.4 (5da689c313, 2019-01-14)"
   sodipodi:docname="logo.svg"
   inkscape:export-filename="C:\Users\00174000\Nextcloud\Images\logo\current\thick\logodarker.png"
   inkscape:export-xdpi="88.321335"
   inkscape:export-ydpi="88.321335">
  <defs
     id="defs2" />
  <sodipodi:namedview
     id="base"
     pagecolor="#ffffff"
     bordercolor="#666666"
     borderopacity="1.0"
     inkscape:pageopacity="0.0"
     inkscape:pageshadow="2"
     inkscape:zoom="0.49497475"
     inkscape:cx="302.19477"
     inkscape:cy="238.68733"
     inkscape:document-units="mm"
     inkscape:current-layer="layer1"
     showgrid="false"
     inkscape:measure-start="354.286,467.143"
     inkscape:measure-end="671.429,287.143"
     inkscape:window-width="2400"
     inkscape:window-height="1271"
     inkscape:window-x="-9"
     inkscape:window-y="-9"
     inkscape:window-maximized="1"
     inkscape:snap-center="true"
     inkscape:snap-intersection-paths="true"
     showguides="false"
     fit-margin-top="0"
     fit-margin-left="0"
     fit-margin-right="0"
     fit-margin-bottom="0" />
  <metadata
     id="metadata5">
    <rdf:RDF>
      <cc:Work
         rdf:about="">
        <dc:format>image/svg+xml</dc:format>
        <dc:type
           rdf:resource="http://purl.org/dc/dcmitype/StillImage" />
        <dc:title />
      </cc:Work>
    </rdf:RDF>
  </metadata>
  <g
     inkscape:label="Layer 1"
     inkscape:groupmode="layer"
     id="layer1"
     transform="translate(-10.697904,-21.82583)">
    <g
       id="g5030"
       style="fill:#c00000;fill-opacity:1;stroke:none"
       transform="translate(-259.29167,-247.95238)"
       inkscape:export-xdpi="88.321335"
       inkscape:export-ydpi="88.321335"
       inkscape:export-filename="C:\Users\Moreillon\moreillon_cloud\Images\logo\inkscape\thick\logo.png">
      <path
         inkscape:transform-center-y="-14.323234"
         inkscape:transform-center-x="29.769985"
         inkscape:connector-curvature="0"
         id="path4683-9-5-5"
         d="m 277.93299,358.71383 4.79511,-17.89561 a 48.054813,48.054813 0 0 1 22.52444,-53.36642 48.054813,48.054813 0 0 1 23.77766,-6.40163 l -10.27357,-10.27335 a 59.290421,59.290421 0 0 0 -19.12183,6.94477 59.290421,59.290421 0 0 0 -21.70181,80.99224 z"
         style="fill:#c00000;fill-opacity:1;stroke:none;stroke-width:0.95553786;stroke-linecap:round;stroke-miterlimit:4;stroke-dasharray:none;stroke-dashoffset:0;stroke-opacity:1" />
      <path
         style="fill:#c00000;fill-opacity:1;stroke:none;stroke-width:0.95553786;stroke-linecap:round;stroke-miterlimit:4;stroke-dasharray:none;stroke-dashoffset:0;stroke-opacity:1"
         d="m 380.62687,358.71362 -17.89561,4.79512 a 48.054813,48.054813 0 0 1 -57.47889,7.17646 48.054813,48.054813 0 0 1 -17.43281,-17.39123 l -3.76019,14.03386 a 59.290421,59.290421 0 0 0 15.57527,13.08758 59.290421,59.290421 0 0 0 80.99223,-21.70179 z"
         id="path5002-5"
         inkscape:connector-curvature="0"
         inkscape:transform-center-x="-3.0632507"
         inkscape:transform-center-y="41.75785" />
      <path
         inkscape:transform-center-y="-17.748686"
         inkscape:transform-center-x="-29.645091"
         inkscape:connector-curvature="0"
         id="path5004-1"
         d="m 329.27976,269.77821 13.1005,13.1005 a 48.054813,48.054813 0 0 1 34.95443,46.18994 48.054813,48.054813 0 0 1 -6.34484,23.79287 l 14.03377,-3.7605 a 59.290421,59.290421 0 0 0 3.54655,-20.03237 59.290421,59.290421 0 0 0 -59.29041,-59.29044 z"
         style="fill:#c00000;fill-opacity:1;stroke:none;stroke-width:0.95553786;stroke-linecap:round;stroke-miterlimit:4;stroke-dasharray:none;stroke-dashoffset:0;stroke-opacity:1" />
    </g>
  </g>
</svg>
